<svg xmlns="http://www.w3.org/2000/svg" viewBox="0 0 64 64">
  <defs>
    <linearGradient id="bg" x1="0" y1="0" x2="1" y2="1">
      <stop offset="0" stop-color="#18a058" />
      <stop offset="1" stop-color="#22c38a" />
    </linearGradient>
  </defs>
  <rect x="4" y="4" width="56" height="56" rx="12" fill="url(#bg)" />
  <rect x="12" y="20" width="28" height="18" rx="3" fill="none" stroke="#ffffff" stroke-width="2.2" />
  <rect x="14" y="23" width="4" height="3" rx="1" fill="#ffffff" />
  <rect x="20" y="23" width="4" height="3" rx="1" fill="#ffffff" />
  <rect x="26" y="23" width="4" height="3" rx="1" fill="#ffffff" />
  <rect x="32" y="23" width="4" height="3" rx="1" fill="#ffffff" />
  <rect x="14" y="28" width="4" height="3" rx="1" fill="#ffffff" />
  <rect x="20" y="28" width="4" height="3" rx="1" fill="#ffffff" />
  <rect x="26" y="28" width="4" height="3" rx="1" fill="#ffffff" />
  <rect x="32" y="28" width="4" height="3" rx="1" fill="#ffffff" />
  <rect x="18" y="33" width="16" height="3" rx="1.5" fill="#ffffff" />
  <rect x="42" y="20" width="8" height="16" rx="4" fill="none" stroke="#ffffff" stroke-width="2.2" />
  <circle cx="46" cy="24" r="2" fill="#ffffff" />
  <rect x="45" y="37" width="2" height="5" rx="1" fill="#ffffff" />
  <path d="M40 42h10" stroke="#ffffff" stroke-width="2.2" stroke-linecap="round" />
</svg>

